<?xml version="1.0" encoding="utf-8" standalone="no"?>
<!DOCTYPE svg PUBLIC "-//W3C//DTD SVG 1.1//EN"
  "http://www.w3.org/Graphics/SVG/1.1/DTD/svg11.dtd">
<svg xmlns:xlink="http://www.w3.org/1999/xlink" width="864pt" height="576pt" viewBox="0 0 864 576" xmlns="http://www.w3.org/2000/svg" version="1.1">
 <metadata>
  <rdf:RDF xmlns:dc="http://purl.org/dc/elements/1.1/" xmlns:cc="http://creativecommons.org/ns#" xmlns:rdf="http://www.w3.org/1999/02/22-rdf-syntax-ns#">
   <cc:Work>
    <dc:type rdf:resource="http://purl.org/dc/dcmitype/StillImage"/>
    <dc:date>2022-02-06T21:12:18.691941</dc:date>
    <dc:format>image/svg+xml</dc:format>
    <dc:creator>
     <cc:Agent>
      <dc:title>Matplotlib v3.5.1, https://matplotlib.org/</dc:title>
     </cc:Agent>
    </dc:creator>
   </cc:Work>
  </rdf:RDF>
 </metadata>
 <defs>
  <style type="text/css">*{stroke-linejoin: round; stroke-linecap: butt}</style>
 </defs>
 <g id="figure_1">
  <g id="patch_1">
   <path d="M 0 576 
L 864 576 
L 864 0 
L 0 0 
L 0 576 
z
" style="fill: none"/>
  </g>
  <g id="axes_1">
   <g id="patch_2">
    <path d="M 43.05 548.2 
L 853.2 548.2 
L 853.2 10.8 
L 43.05 10.8 
z
" style="fill: #ffffff"/>
   </g>
   <g id="matplotlib.axis_1">
    <g id="xtick_1">
     <g id="line2d_1">
      <path d="M 115.771639 548.2 
L 115.771639 10.8 
" clip-path="url(#p59917e3b3d)" style="fill: none; stroke: #b0b0b0; stroke-width: 0.8; stroke-linecap: square"/>
     </g>
     <g id="line2d_2">
      <defs>
       <path id="m689abafecd" d="M 0 0 
L 0 3.5 
" style="stroke: #000000; stroke-width: 0.8"/>
      </defs>
      <g>
       <use xlink:href="#m689abafecd" x="115.771639" y="548.2" style="stroke: #000000; stroke-width: 0.8"/>
      </g>
     </g>
     <g id="text_1">
      <!-- 2019 -->
      <g transform="translate(103.046639 562.798437)scale(0.1 -0.1)">
       <defs>
        <path id="DejaVuSans-32" d="M 1228 531 
L 3431 531 
L 3431 0 
L 469 0 
L 469 531 
Q 828 903 1448 1529 
Q 2069 2156 2228 2338 
Q 2531 2678 2651 2914 
Q 2772 3150 2772 3378 
Q 2772 3750 2511 3984 
Q 2250 4219 1831 4219 
Q 1534 4219 1204 4116 
Q 875 4013 500 3803 
L 500 4441 
Q 881 4594 1212 4672 
Q 1544 4750 1819 4750 
Q 2544 4750 2975 4387 
Q 3406 4025 3406 3419 
Q 3406 3131 3298 2873 
Q 3191 2616 2906 2266 
Q 2828 2175 2409 1742 
Q 1991 1309 1228 531 
z
" transform="scale(0.015625)"/>
        <path id="DejaVuSans-30" d="M 2034 4250 
Q 1547 4250 1301 3770 
Q 1056 3291 1056 2328 
Q 1056 1369 1301 889 
Q 1547 409 2034 409 
Q 2525 409 2770 889 
Q 3016 1369 3016 2328 
Q 3016 3291 2770 3770 
Q 2525 4250 2034 4250 
z
M 2034 4750 
Q 2819 4750 3233 4129 
Q 3647 3509 3647 2328 
Q 3647 1150 3233 529 
Q 2819 -91 2034 -91 
Q 1250 -91 836 529 
Q 422 1150 422 2328 
Q 422 3509 836 4129 
Q 1250 4750 2034 4750 
z
" transform="scale(0.015625)"/>
        <path id="DejaVuSans-31" d="M 794 531 
L 1825 531 
L 1825 4091 
L 703 3866 
L 703 4441 
L 1819 4666 
L 2450 4666 
L 2450 531 
L 3481 531 
L 3481 0 
L 794 0 
L 794 531 
z
" transform="scale(0.015625)"/>
        <path id="DejaVuSans-39" d="M 703 97 
L 703 672 
Q 941 559 1184 500 
Q 1428 441 1663 441 
Q 2288 441 2617 861 
Q 2947 1281 2994 2138 
Q 2813 1869 2534 1725 
Q 2256 1581 1919 1581 
Q 1219 1581 811 2004 
Q 403 2428 403 3163 
Q 403 3881 828 4315 
Q 1253 4750 1959 4750 
Q 2769 4750 3195 4129 
Q 3622 3509 3622 2328 
Q 3622 1225 3098 567 
Q 2575 -91 1691 -91 
Q 1453 -91 1209 -44 
Q 966 3 703 97 
z
M 1959 2075 
Q 2384 2075 2632 2365 
Q 2881 2656 2881 3163 
Q 2881 3666 2632 3958 
Q 2384 4250 1959 4250 
Q 1534 4250 1286 3958 
Q 1038 3666 1038 3163 
Q 1038 2656 1286 2365 
Q 1534 2075 1959 2075 
z
" transform="scale(0.015625)"/>
       </defs>
       <use xlink:href="#DejaVuSans-32"/>
       <use xlink:href="#DejaVuSans-30" x="63.623047"/>
       <use xlink:href="#DejaVuSans-31" x="127.246094"/>
       <use xlink:href="#DejaVuSans-39" x="190.869141"/>
      </g>
     </g>
    </g>
    <g id="xtick_2">
     <g id="line2d_3">
      <path d="M 341.672899 548.2 
L 341.672899 10.8 
" clip-path="url(#p59917e3b3d)" style="fill: none; stroke: #b0b0b0; stroke-width: 0.8; stroke-linecap: square"/>
     </g>
     <g id="line2d_4">
      <g>
       <use xlink:href="#m689abafecd" x="341.672899" y="548.2" style="stroke: #000000; stroke-width: 0.8"/>
      </g>
     </g>
     <g id="text_2">
      <!-- 2020 -->
      <g transform="translate(328.947899 562.798437)scale(0.1 -0.1)">
       <use xlink:href="#DejaVuSans-32"/>
       <use xlink:href="#DejaVuSans-30" x="63.623047"/>
       <use xlink:href="#DejaVuSans-32" x="127.246094"/>
       <use xlink:href="#DejaVuSans-30" x="190.869141"/>
      </g>
     </g>
    </g>
    <g id="xtick_3">
     <g id="line2d_5">
      <path d="M 568.193067 548.2 
L 568.193067 10.8 
" clip-path="url(#p59917e3b3d)" style="fill: none; stroke: #b0b0b0; stroke-width: 0.8; stroke-linecap: square"/>
     </g>
     <g id="line2d_6">
      <g>
       <use xlink:href="#m689abafecd" x="568.193067" y="548.2" style="stroke: #000000; stroke-width: 0.8"/>
      </g>
     </g>
     <g id="text_3">
      <!-- 2021 -->
      <g transform="translate(555.468067 562.798437)scale(0.1 -0.1)">
       <use xlink:href="#DejaVuSans-32"/>
       <use xlink:href="#DejaVuSans-30" x="63.623047"/>
       <use xlink:href="#DejaVuSans-32" x="127.246094"/>
       <use xlink:href="#DejaVuSans-31" x="190.869141"/>
      </g>
     </g>
    </g>
    <g id="xtick_4">
     <g id="line2d_7">
      <path d="M 794.094328 548.2 
L 794.094328 10.8 
" clip-path="url(#p59917e3b3d)" style="fill: none; stroke: #b0b0b0; stroke-width: 0.8; stroke-linecap: square"/>
     </g>
     <g id="line2d_8">
      <g>
       <use xlink:href="#m689abafecd" x="794.094328" y="548.2" style="stroke: #000000; stroke-width: 0.8"/>
      </g>
     </g>
     <g id="text_4">
      <!-- 2022 -->
      <g transform="translate(781.369328 562.798437)scale(0.1 -0.1)">
       <use xlink:href="#DejaVuSans-32"/>
       <use xlink:href="#DejaVuSans-30" x="63.623047"/>
       <use xlink:href="#DejaVuSans-32" x="127.246094"/>
       <use xlink:href="#DejaVuSans-32" x="190.869141"/>
      </g>
     </g>
    </g>
   </g>
   <g id="matplotlib.axis_2">
    <g id="ytick_1">
     <g id="line2d_9">
      <path d="M 43.05 524.186398 
L 853.2 524.186398 
" clip-path="url(#p59917e3b3d)" style="fill: none; stroke: #b0b0b0; stroke-width: 0.8; stroke-linecap: square"/>
     </g>
     <g id="line2d_10">
      <defs>
       <path id="m59c1bcece5" d="M 0 0 
L -3.5 0 
" style="stroke: #000000; stroke-width: 0.8"/>
      </defs>
      <g>
       <use xlink:href="#m59c1bcece5" x="43.05" y="524.186398" style="stroke: #000000; stroke-width: 0.8"/>
      </g>
     </g>
     <g id="text_5">
      <!-- 0 -->
      <g transform="translate(29.6875 527.985617)scale(0.1 -0.1)">
       <use xlink:href="#DejaVuSans-30"/>
      </g>
     </g>
    </g>
    <g id="ytick_2">
     <g id="line2d_11">
      <path d="M 43.05 441.452198 
L 853.2 441.452198 
" clip-path="url(#p59917e3b3d)" style="fill: none; stroke: #b0b0b0; stroke-width: 0.8; stroke-linecap: square"/>
     </g>
     <g id="line2d_12">
      <g>
       <use xlink:href="#m59c1bcece5" x="43.05" y="441.452198" style="stroke: #000000; stroke-width: 0.8"/>
      </g>
     </g>
     <g id="text_6">
      <!-- 200 -->
      <g transform="translate(16.9625 445.251416)scale(0.1 -0.1)">
       <use xlink:href="#DejaVuSans-32"/>
       <use xlink:href="#DejaVuSans-30" x="63.623047"/>
       <use xlink:href="#DejaVuSans-30" x="127.246094"/>
      </g>
     </g>
    </g>
    <g id="ytick_3">
     <g id="line2d_13">
      <path d="M 43.05 358.717997 
L 853.2 358.717997 
" clip-path="url(#p59917e3b3d)" style="fill: none; stroke: #b0b0b0; stroke-width: 0.8; stroke-linecap: square"/>
     </g>
     <g id="line2d_14">
      <g>
       <use xlink:href="#m59c1bcece5" x="43.05" y="358.717997" style="stroke: #000000; stroke-width: 0.8"/>
      </g>
     </g>
     <g id="text_7">
      <!-- 400 -->
      <g transform="translate(16.9625 362.517216)scale(0.1 -0.1)">
       <defs>
        <path id="DejaVuSans-34" d="M 2419 4116 
L 825 1625 
L 2419 1625 
L 2419 4116 
z
M 2253 4666 
L 3047 4666 
L 3047 1625 
L 3713 1625 
L 3713 1100 
L 3047 1100 
L 3047 0 
L 2419 0 
L 2419 1100 
L 313 1100 
L 313 1709 
L 2253 4666 
z
" transform="scale(0.015625)"/>
       </defs>
       <use xlink:href="#DejaVuSans-34"/>
       <use xlink:href="#DejaVuSans-30" x="63.623047"/>
       <use xlink:href="#DejaVuSans-30" x="127.246094"/>
      </g>
     </g>
    </g>
    <g id="ytick_4">
     <g id="line2d_15">
      <path d="M 43.05 275.983796 
L 853.2 275.983796 
" clip-path="url(#p59917e3b3d)" style="fill: none; stroke: #b0b0b0; stroke-width: 0.8; stroke-linecap: square"/>
     </g>
     <g id="line2d_16">
      <g>
       <use xlink:href="#m59c1bcece5" x="43.05" y="275.983796" style="stroke: #000000; stroke-width: 0.8"/>
      </g>
     </g>
     <g id="text_8">
      <!-- 600 -->
      <g transform="translate(16.9625 279.783015)scale(0.1 -0.1)">
       <defs>
        <path id="DejaVuSans-36" d="M 2113 2584 
Q 1688 2584 1439 2293 
Q 1191 2003 1191 1497 
Q 1191 994 1439 701 
Q 1688 409 2113 409 
Q 2538 409 2786 701 
Q 3034 994 3034 1497 
Q 3034 2003 2786 2293 
Q 2538 2584 2113 2584 
z
M 3366 4563 
L 3366 3988 
Q 3128 4100 2886 4159 
Q 2644 4219 2406 4219 
Q 1781 4219 1451 3797 
Q 1122 3375 1075 2522 
Q 1259 2794 1537 2939 
Q 1816 3084 2150 3084 
Q 2853 3084 3261 2657 
Q 3669 2231 3669 1497 
Q 3669 778 3244 343 
Q 2819 -91 2113 -91 
Q 1303 -91 875 529 
Q 447 1150 447 2328 
Q 447 3434 972 4092 
Q 1497 4750 2381 4750 
Q 2619 4750 2861 4703 
Q 3103 4656 3366 4563 
z
" transform="scale(0.015625)"/>
       </defs>
       <use xlink:href="#DejaVuSans-36"/>
       <use xlink:href="#DejaVuSans-30" x="63.623047"/>
       <use xlink:href="#DejaVuSans-30" x="127.246094"/>
      </g>
     </g>
    </g>
    <g id="ytick_5">
     <g id="line2d_17">
      <path d="M 43.05 193.249596 
L 853.2 193.249596 
" clip-path="url(#p59917e3b3d)" style="fill: none; stroke: #b0b0b0; stroke-width: 0.8; stroke-linecap: square"/>
     </g>
     <g id="line2d_18">
      <g>
       <use xlink:href="#m59c1bcece5" x="43.05" y="193.249596" style="stroke: #000000; stroke-width: 0.8"/>
      </g>
     </g>
     <g id="text_9">
      <!-- 800 -->
      <g transform="translate(16.9625 197.048815)scale(0.1 -0.1)">
       <defs>
        <path id="DejaVuSans-38" d="M 2034 2216 
Q 1584 2216 1326 1975 
Q 1069 1734 1069 1313 
Q 1069 891 1326 650 
Q 1584 409 2034 409 
Q 2484 409 2743 651 
Q 3003 894 3003 1313 
Q 3003 1734 2745 1975 
Q 2488 2216 2034 2216 
z
M 1403 2484 
Q 997 2584 770 2862 
Q 544 3141 544 3541 
Q 544 4100 942 4425 
Q 1341 4750 2034 4750 
Q 2731 4750 3128 4425 
Q 3525 4100 3525 3541 
Q 3525 3141 3298 2862 
Q 3072 2584 2669 2484 
Q 3125 2378 3379 2068 
Q 3634 1759 3634 1313 
Q 3634 634 3220 271 
Q 2806 -91 2034 -91 
Q 1263 -91 848 271 
Q 434 634 434 1313 
Q 434 1759 690 2068 
Q 947 2378 1403 2484 
z
M 1172 3481 
Q 1172 3119 1398 2916 
Q 1625 2713 2034 2713 
Q 2441 2713 2670 2916 
Q 2900 3119 2900 3481 
Q 2900 3844 2670 4047 
Q 2441 4250 2034 4250 
Q 1625 4250 1398 4047 
Q 1172 3844 1172 3481 
z
" transform="scale(0.015625)"/>
       </defs>
       <use xlink:href="#DejaVuSans-38"/>
       <use xlink:href="#DejaVuSans-30" x="63.623047"/>
       <use xlink:href="#DejaVuSans-30" x="127.246094"/>
      </g>
     </g>
    </g>
    <g id="ytick_6">
     <g id="line2d_19">
      <path d="M 43.05 110.515395 
L 853.2 110.515395 
" clip-path="url(#p59917e3b3d)" style="fill: none; stroke: #b0b0b0; stroke-width: 0.8; stroke-linecap: square"/>
     </g>
     <g id="line2d_20">
      <g>
       <use xlink:href="#m59c1bcece5" x="43.05" y="110.515395" style="stroke: #000000; stroke-width: 0.8"/>
      </g>
     </g>
     <g id="text_10">
      <!-- 1000 -->
      <g transform="translate(10.6 114.314614)scale(0.1 -0.1)">
       <use xlink:href="#DejaVuSans-31"/>
       <use xlink:href="#DejaVuSans-30" x="63.623047"/>
       <use xlink:href="#DejaVuSans-30" x="127.246094"/>
       <use xlink:href="#DejaVuSans-30" x="190.869141"/>
      </g>
     </g>
    </g>
    <g id="ytick_7">
     <g id="line2d_21">
      <path d="M 43.05 27.781195 
L 853.2 27.781195 
" clip-path="url(#p59917e3b3d)" style="fill: none; stroke: #b0b0b0; stroke-width: 0.8; stroke-linecap: square"/>
     </g>
     <g id="line2d_22">
      <g>
       <use xlink:href="#m59c1bcece5" x="43.05" y="27.781195" style="stroke: #000000; stroke-width: 0.8"/>
      </g>
     </g>
     <g id="text_11">
      <!-- 1200 -->
      <g transform="translate(10.6 31.580413)scale(0.1 -0.1)">
       <use xlink:href="#DejaVuSans-31"/>
       <use xlink:href="#DejaVuSans-32" x="63.623047"/>
       <use xlink:href="#DejaVuSans-30" x="127.246094"/>
       <use xlink:href="#DejaVuSans-30" x="190.869141"/>
      </g>
     </g>
    </g>
   </g>
   <g id="line2d_23">
    <path d="M 79.875 174.22073 
L 84.207353 178.35744 
L 88.539706 176.289085 
L 92.872059 170.911362 
L 97.204412 172.152375 
L 105.869118 167.188323 
L 110.201471 167.601994 
L 114.533824 166.360981 
L 118.866176 168.429336 
L 123.198529 171.738704 
L 127.530882 168.429336 
L 131.863235 169.670349 
L 136.195588 177.116427 
L 140.527941 176.289085 
L 144.860294 173.393388 
L 149.192647 166.774652 
L 153.525 163.878955 
L 157.857353 163.878955 
L 162.189706 167.188323 
L 166.522059 163.878955 
L 170.854412 162.637942 
L 175.186765 161.8106 
L 179.519118 161.8106 
L 183.851471 166.360981 
L 188.183824 167.601994 
L 192.516176 167.188323 
L 196.848529 164.292626 
L 201.180882 168.015665 
L 205.513235 161.396929 
L 209.845588 160.155916 
L 214.177941 166.774652 
L 218.510294 161.396929 
L 222.842647 161.396929 
L 227.175 161.8106 
L 231.507353 160.155916 
L 235.839706 184.148834 
L 240.172059 157.260219 
L 244.504412 163.051613 
L 248.836765 162.224271 
L 253.169118 155.191864 
L 261.833824 152.709838 
L 266.166176 151.882496 
L 270.498529 149.40047 
L 274.830882 148.986799 
L 279.163235 152.296167 
L 283.495588 151.055154 
L 292.160294 161.8106 
L 296.492647 146.504773 
L 302.062815 156.019206 
L 305.157353 150.227812 
L 309.489706 157.67389 
L 313.822059 149.814141 
L 318.154412 153.53718 
L 322.486765 148.986799 
L 326.819118 153.123509 
L 331.151471 144.850089 
L 335.483824 146.091102 
L 339.816176 147.745786 
L 344.148529 145.26376 
L 348.480882 142.368063 
L 355.288866 127.889577 
L 357.145588 134.508313 
L 361.477941 129.544261 
L 365.810294 127.889577 
L 370.142647 131.198945 
L 374.475 134.921984 
L 378.807353 122.098183 
L 383.139706 119.202486 
L 387.472059 119.202486 
L 391.804412 120.029828 
L 396.136765 123.752867 
L 400.469118 122.511854 
L 404.801471 124.166538 
L 409.133824 119.616157 
L 413.466176 120.443499 
L 417.798529 127.475906 
L 422.130882 121.270841 
L 426.463235 124.580209 
L 430.795588 116.306789 
L 435.127941 121.684512 
L 439.460294 122.925525 
L 443.792647 119.616157 
L 448.125 114.652105 
L 452.457353 115.893118 
L 456.789706 117.547802 
L 461.122059 112.170079 
L 465.454412 112.58375 
L 469.786765 111.756408 
L 475.97584 104.724001 
L 487.116176 100.587291 
L 491.448529 101.414633 
L 495.780882 103.482988 
L 530.439706 104.31033 
L 534.772059 110.515395 
L 539.104412 110.101724 
L 543.436765 99.759949 
L 547.769118 100.17362 
L 552.101471 101.828304 
L 552.720378 91.9002 
L 555.196008 81.972096 
L 556.433824 83.62678 
L 560.766176 81.558425 
L 565.098529 87.76349 
L 569.430882 82.799438 
L 573.763235 79.903741 
L 578.095588 79.076399 
L 582.427941 79.076399 
L 586.760294 73.698676 
L 591.092647 72.871334 
L 595.425 69.975637 
L 599.757353 78.662728 
L 604.089706 67.493611 
L 608.422059 65.838927 
L 612.754412 66.252598 
L 617.086765 61.702217 
L 621.419118 63.356901 
L 625.751471 61.288546 
L 630.083824 62.115888 
L 638.748529 58.80652 
L 643.080882 60.874875 
L 647.413235 58.80652 
L 651.745588 55.083481 
L 656.077941 58.80652 
L 660.410294 57.565507 
L 664.742647 49.705758 
L 669.075 42.673351 
L 673.407353 44.328035 
L 677.739706 43.500693 
L 682.072059 36.881957 
L 686.404412 38.950312 
L 690.736765 39.777654 
L 695.069118 38.12297 
L 699.401471 42.673351 
L 703.733824 39.777654 
L 708.066176 40.604996 
L 712.398529 37.709299 
L 716.730882 47.637403 
L 721.063235 36.468286 
L 725.395588 39.363983 
L 729.727941 44.328035 
L 734.060294 35.227273 
L 738.392647 40.191325 
L 742.725 40.604996 
L 747.057353 42.673351 
L 751.389706 40.191325 
L 755.722059 36.881957 
L 760.054412 39.363983 
L 764.386765 37.709299 
L 768.719118 37.709299 
L 773.051471 46.39639 
L 777.383824 43.500693 
L 781.716176 45.569048 
L 786.048529 44.328035 
L 790.380882 45.569048 
L 794.713235 47.223732 
L 799.045588 46.39639 
L 803.377941 41.846009 
L 807.710294 41.018667 
L 812.042647 38.950312 
L 816.375 36.468286 
L 816.375 36.468286 
" clip-path="url(#p59917e3b3d)" style="fill: none; stroke: #1f77b4; stroke-width: 1.5; stroke-linecap: square"/>
   </g>
   <g id="line2d_24">
    <path d="M 79.875 252.404549 
L 84.207353 249.508852 
L 88.539706 242.890116 
L 92.872059 245.785813 
L 97.204412 245.372142 
L 101.536765 245.372142 
L 105.869118 244.131129 
L 110.201471 240.821761 
L 114.533824 240.821761 
L 118.866176 244.131129 
L 123.198529 240.821761 
L 127.530882 240.40809 
L 131.863235 236.685051 
L 136.195588 235.444038 
L 140.527941 235.444038 
L 144.860294 237.926064 
L 149.192647 236.27138 
L 153.525 237.098722 
L 157.857353 237.098722 
L 162.189706 233.375683 
L 166.522059 233.789354 
L 170.854412 234.616696 
L 175.186765 242.890116 
L 179.519118 236.685051 
L 183.851471 235.857709 
L 188.183824 232.548341 
L 192.516176 231.720999 
L 196.848529 232.548341 
L 201.180882 235.444038 
L 205.513235 243.717458 
L 209.845588 242.062774 
L 214.177941 240.821761 
L 227.175 240.821761 
L 240.172059 239.580748 
L 244.504412 239.994419 
L 248.836765 239.580748 
L 253.169118 238.753406 
L 257.501471 239.167077 
L 261.833824 236.685051 
L 266.166176 235.444038 
L 270.498529 233.375683 
L 274.830882 235.030367 
L 279.163235 239.580748 
L 283.495588 237.926064 
L 287.827941 239.167077 
L 292.160294 239.994419 
L 296.492647 236.685051 
L 302.062815 205.246055 
L 305.157353 204.832384 
L 309.489706 210.623778 
L 313.822059 204.418713 
L 318.154412 201.936687 
L 322.486765 200.282003 
L 326.819118 205.659726 
L 331.151471 200.695674 
L 335.483824 198.213648 
L 339.816176 199.868332 
L 344.148529 200.282003 
L 348.480882 201.936687 
L 355.288866 193.663267 
L 357.145588 191.594912 
L 361.477941 195.317951 
L 365.810294 198.627319 
L 370.142647 194.490609 
L 374.475 198.213648 
L 378.807353 198.627319 
L 383.139706 192.835925 
L 387.472059 197.386306 
L 391.804412 198.627319 
L 396.136765 200.695674 
L 400.469118 198.213648 
L 404.801471 199.868332 
L 409.133824 197.799977 
L 413.466176 197.799977 
L 417.798529 199.454661 
L 422.130882 225.102263 
L 426.463235 214.346817 
L 430.795588 216.828843 
L 435.127941 216.001501 
L 439.460294 216.828843 
L 443.792647 191.181241 
L 448.125 188.285544 
L 452.457353 190.353899 
L 456.789706 186.63086 
L 461.122059 182.080479 
L 465.454412 183.321492 
L 469.786765 183.735163 
L 475.97584 171.738704 
L 487.116176 177.116427 
L 491.448529 175.461743 
L 495.780882 177.116427 
L 530.439706 169.256678 
L 534.772059 173.807059 
L 539.104412 174.22073 
L 543.436765 165.94731 
L 547.769118 173.393388 
L 552.101471 166.360981 
L 552.720378 162.224271 
L 555.196008 159.742245 
L 556.433824 159.742245 
L 560.766176 157.67389 
L 565.098529 160.983258 
L 569.430882 162.224271 
L 573.763235 169.256678 
L 578.095588 170.08402 
L 582.427941 168.015665 
L 586.760294 168.015665 
L 591.092647 164.706297 
L 595.425 165.94731 
L 599.757353 166.774652 
L 604.089706 163.465284 
L 608.422059 165.119968 
L 612.754412 165.94731 
L 617.086765 164.706297 
L 621.419118 165.533639 
L 625.751471 164.292626 
L 630.083824 168.015665 
L 638.748529 168.429336 
L 643.080882 177.943769 
L 647.413235 170.497691 
L 651.745588 167.601994 
L 656.077941 167.188323 
L 660.410294 167.601994 
L 664.742647 162.637942 
L 669.075 165.94731 
L 673.407353 165.94731 
L 677.739706 163.051613 
L 682.072059 162.637942 
L 686.404412 162.637942 
L 690.736765 159.742245 
L 695.069118 161.396929 
L 699.401471 163.878955 
L 703.733824 166.774652 
L 708.066176 170.08402 
L 712.398529 163.051613 
L 716.730882 162.637942 
L 721.063235 165.119968 
L 725.395588 168.015665 
L 729.727941 165.533639 
L 734.060294 166.360981 
L 738.392647 159.742245 
L 742.725 162.637942 
L 747.057353 159.742245 
L 751.389706 158.501232 
L 755.722059 158.914903 
L 760.054412 155.605535 
L 764.386765 155.191864 
L 768.719118 150.641483 
L 773.051471 154.364522 
L 777.383824 163.465284 
L 781.716176 165.119968 
L 786.048529 164.706297 
L 790.380882 163.878955 
L 794.713235 164.292626 
L 799.045588 163.465284 
L 803.377941 164.292626 
L 807.710294 164.706297 
L 812.042647 165.533639 
L 816.375 169.256678 
L 816.375 169.256678 
" clip-path="url(#p59917e3b3d)" style="fill: none; stroke: #ff7f0e; stroke-width: 1.5; stroke-linecap: square"/>
   </g>
   <g id="line2d_25">
    <path d="M 79.875 271.847086 
L 84.207353 272.260757 
L 88.539706 273.50177 
L 92.872059 272.674428 
L 97.204412 272.260757 
L 101.536765 271.433415 
L 105.869118 271.847086 
L 110.201471 272.674428 
L 114.533824 275.570125 
L 118.866176 271.019744 
L 123.198529 269.778731 
L 127.530882 266.055692 
L 131.863235 268.124047 
L 136.195588 266.883034 
L 140.527941 263.573666 
L 144.860294 263.573666 
L 149.192647 261.09164 
L 153.525 262.746324 
L 157.857353 260.677969 
L 162.189706 259.850627 
L 166.522059 259.850627 
L 170.854412 260.264298 
L 175.186765 280.120507 
L 179.519118 258.609614 
L 183.851471 256.127588 
L 188.183824 257.368601 
L 192.516176 255.713917 
L 196.848529 259.436956 
L 201.180882 261.09164 
L 205.513235 272.260757 
L 209.845588 269.778731 
L 214.177941 271.019744 
L 222.842647 264.401008 
L 227.175 263.573666 
L 231.507353 262.332653 
L 235.839706 264.814679 
L 240.172059 264.401008 
L 244.504412 261.09164 
L 248.836765 263.987337 
L 253.169118 262.332653 
L 257.501471 263.987337 
L 261.833824 265.22835 
L 266.166176 263.987337 
L 270.498529 263.573666 
L 274.830882 263.987337 
L 279.163235 275.156454 
L 283.495588 264.814679 
L 287.827941 271.019744 
L 292.160294 259.436956 
L 296.492647 269.36506 
L 302.062815 261.09164 
L 305.157353 261.09164 
L 309.489706 271.433415 
L 313.822059 261.918982 
L 318.154412 264.401008 
L 322.486765 255.713917 
L 326.819118 255.300246 
L 331.151471 254.059233 
L 335.483824 257.368601 
L 339.816176 254.472904 
L 344.148529 250.749865 
L 348.480882 250.749865 
L 355.288866 316.109884 
L 357.145588 244.5448 
L 361.477941 247.026826 
L 365.810294 242.062774 
L 370.142647 242.062774 
L 374.475 243.303787 
L 378.807353 232.962012 
L 383.139706 235.857709 
L 387.472059 233.375683 
L 391.804412 233.789354 
L 396.136765 230.479986 
L 400.469118 230.893657 
L 404.801471 231.720999 
L 409.133824 230.893657 
L 413.466176 229.238973 
L 417.798529 229.238973 
L 422.130882 228.411631 
L 426.463235 228.411631 
L 430.795588 230.893657 
L 435.127941 227.584289 
L 439.460294 227.99796 
L 443.792647 225.929605 
L 448.125 223.033908 
L 452.457353 237.926064 
L 456.789706 223.447579 
L 461.122059 204.005042 
L 465.454412 204.005042 
L 469.786765 205.246055 
L 475.97584 203.1777 
L 487.116176 203.591371 
L 491.448529 208.969094 
L 495.780882 217.656185 
L 530.439706 219.72454 
L 534.772059 220.965553 
L 539.104412 215.174159 
L 543.436765 214.760488 
L 547.769118 213.519475 
L 552.101471 221.792895 
L 552.720378 213.519475 
L 555.196008 209.796436 
L 556.433824 212.692133 
L 560.766176 210.623778 
L 565.098529 209.796436 
L 569.430882 210.210107 
L 573.763235 211.45112 
L 578.095588 208.969094 
L 582.427941 211.037449 
L 586.760294 208.141752 
L 591.092647 207.728081 
L 595.425 206.900739 
L 599.757353 199.04099 
L 604.089706 204.832384 
L 608.422059 209.382765 
L 612.754412 205.246055 
L 617.086765 204.418713 
L 621.419118 205.246055 
L 625.751471 202.764029 
L 630.083824 208.969094 
L 638.748529 207.31441 
L 643.080882 204.418713 
L 647.413235 207.728081 
L 651.745588 204.005042 
L 656.077941 202.764029 
L 660.410294 208.969094 
L 664.742647 206.073397 
L 669.075 208.555423 
L 673.407353 212.692133 
L 677.739706 205.659726 
L 686.404412 207.31441 
L 690.736765 202.764029 
L 695.069118 206.487068 
L 699.401471 197.386306 
L 703.733824 199.04099 
L 708.066176 196.145293 
L 712.398529 196.145293 
L 716.730882 193.663267 
L 721.063235 196.558964 
L 725.395588 194.076938 
L 729.727941 195.317951 
L 734.060294 192.835925 
L 738.392647 192.008583 
L 742.725 192.835925 
L 747.057353 192.008583 
L 751.389706 192.008583 
L 755.722059 191.594912 
L 760.054412 193.249596 
L 764.386765 193.663267 
L 768.719118 193.249596 
L 773.051471 194.490609 
L 777.383824 189.112886 
L 781.716176 181.253137 
L 786.048529 183.735163 
L 790.380882 184.976176 
L 794.713235 180.425795 
L 799.045588 181.666808 
L 803.377941 181.666808 
L 807.710294 179.184782 
L 812.042647 178.35744 
L 816.375 182.907821 
L 816.375 182.907821 
" clip-path="url(#p59917e3b3d)" style="fill: none; stroke: #2ca02c; stroke-width: 1.5; stroke-linecap: square"/>
   </g>
   <g id="line2d_26">
    <path d="M 79.875 376.092179 
L 84.207353 377.333192 
L 88.539706 376.919521 
L 92.872059 375.264837 
L 97.204412 376.092179 
L 101.536765 376.50585 
L 105.869118 374.851166 
L 110.201471 374.437495 
L 114.533824 374.851166 
L 118.866176 375.678508 
L 123.198529 370.300785 
L 127.530882 374.023824 
L 131.863235 373.610153 
L 136.195588 369.059772 
L 140.527941 369.059772 
L 144.860294 368.23243 
L 149.192647 368.646101 
L 153.525 364.923062 
L 157.857353 366.991417 
L 162.189706 368.23243 
L 166.522059 366.164075 
L 170.854412 364.923062 
L 179.519118 368.23243 
L 183.851471 366.164075 
L 188.183824 364.923062 
L 192.516176 364.923062 
L 196.848529 367.818759 
L 201.180882 367.818759 
L 205.513235 368.23243 
L 209.845588 366.577746 
L 214.177941 366.164075 
L 218.510294 368.23243 
L 227.175 364.923062 
L 231.507353 365.336733 
L 235.839706 367.405088 
L 240.172059 371.955469 
L 244.504412 364.509391 
L 248.836765 364.509391 
L 257.501471 362.027365 
L 261.833824 364.923062 
L 270.498529 364.923062 
L 274.830882 364.09572 
L 279.163235 364.509391 
L 283.495588 363.682049 
L 287.827941 364.09572 
L 292.160294 363.268378 
L 296.492647 365.750404 
L 309.489706 365.750404 
L 313.822059 364.509391 
L 318.154412 364.509391 
L 322.486765 365.750404 
L 326.819118 364.09572 
L 331.151471 364.509391 
L 335.483824 363.268378 
L 339.816176 362.854707 
L 344.148529 363.268378 
L 348.480882 360.372681 
L 355.288866 361.613694 
L 357.145588 360.372681 
L 361.477941 359.545339 
L 365.810294 361.613694 
L 370.142647 360.786352 
L 374.475 358.304326 
L 378.807353 360.372681 
L 383.139706 357.890655 
L 387.472059 362.441036 
L 391.804412 366.164075 
L 396.136765 365.336733 
L 400.469118 364.09572 
L 404.801471 364.509391 
L 409.133824 364.09572 
L 413.466176 366.164075 
L 417.798529 365.750404 
L 422.130882 364.09572 
L 426.463235 362.027365 
L 430.795588 373.196482 
L 435.127941 362.854707 
L 439.460294 353.340274 
L 443.792647 352.926603 
L 448.125 350.444577 
L 452.457353 351.68559 
L 456.789706 349.617235 
L 461.122059 349.203564 
L 465.454412 350.444577 
L 469.786765 348.789893 
L 487.116176 370.714456 
L 491.448529 356.649642 
L 495.780882 354.994958 
L 530.439706 345.066854 
L 534.772059 345.066854 
L 539.104412 344.239512 
L 543.436765 342.998499 
L 547.769118 340.516473 
L 552.101471 342.998499 
L 552.720378 340.516473 
L 555.196008 341.343815 
L 556.433824 341.343815 
L 565.098529 339.689131 
L 569.430882 340.102802 
L 573.763235 335.966092 
L 578.095588 336.793434 
L 582.427941 338.034447 
L 586.760294 338.034447 
L 591.092647 335.966092 
L 595.425 336.793434 
L 599.757353 336.379763 
L 604.089706 336.793434 
L 608.422059 335.552421 
L 612.754412 335.552421 
L 617.086765 334.725079 
L 621.419118 335.13875 
L 625.751471 334.311408 
L 630.083824 337.207105 
L 638.748529 333.484066 
L 643.080882 334.311408 
L 647.413235 336.379763 
L 651.745588 335.13875 
L 656.077941 335.966092 
L 660.410294 335.552421 
L 664.742647 334.311408 
L 669.075 334.311408 
L 673.407353 333.070395 
L 677.739706 332.656724 
L 682.072059 333.897737 
L 686.404412 331.00204 
L 695.069118 331.829382 
L 699.401471 342.171157 
L 703.733824 331.00204 
L 708.066176 329.761027 
L 712.398529 329.761027 
L 716.730882 338.448118 
L 721.063235 341.343815 
L 729.727941 340.516473 
L 734.060294 342.171157 
L 738.392647 334.725079 
L 742.725 330.588369 
L 747.057353 329.347356 
L 751.389706 331.829382 
L 755.722059 330.588369 
L 760.054412 329.761027 
L 764.386765 331.829382 
L 768.719118 328.933685 
L 773.051471 331.829382 
L 777.383824 331.829382 
L 781.716176 333.070395 
L 786.048529 330.588369 
L 790.380882 330.174698 
L 794.713235 331.00204 
L 799.045588 329.761027 
L 803.377941 329.347356 
L 812.042647 331.00204 
L 816.375 329.761027 
L 816.375 329.761027 
" clip-path="url(#p59917e3b3d)" style="fill: none; stroke: #d62728; stroke-width: 1.5; stroke-linecap: square"/>
   </g>
   <g id="line2d_27">
    <path d="M 79.875 460.481064 
L 84.207353 460.481064 
L 88.539706 458.412709 
L 92.872059 459.240051 
L 97.204412 458.412709 
L 101.536765 458.412709 
L 105.869118 457.999038 
L 110.201471 458.412709 
L 114.533824 458.412709 
L 118.866176 459.240051 
L 123.198529 459.240051 
L 127.530882 458.412709 
L 131.863235 458.412709 
L 136.195588 458.82638 
L 140.527941 457.999038 
L 144.860294 459.653722 
L 149.192647 459.240051 
L 153.525 458.412709 
L 157.857353 458.82638 
L 162.189706 458.82638 
L 166.522059 458.412709 
L 170.854412 457.585367 
L 183.851471 457.585367 
L 188.183824 457.999038 
L 196.848529 457.999038 
L 201.180882 457.585367 
L 205.513235 457.585367 
L 209.845588 457.171696 
L 214.177941 458.412709 
L 222.842647 456.758025 
L 227.175 456.344354 
L 231.507353 455.517012 
L 235.839706 455.517012 
L 240.172059 455.930683 
L 244.504412 455.930683 
L 248.836765 455.517012 
L 253.169118 455.930683 
L 257.501471 455.930683 
L 261.833824 455.103341 
L 266.166176 454.68967 
L 270.498529 454.68967 
L 279.163235 453.862328 
L 283.495588 470.822839 
L 287.827941 453.862328 
L 292.160294 453.862328 
L 296.492647 453.034986 
L 302.062815 453.034986 
L 305.157353 453.862328 
L 309.489706 453.448657 
L 313.822059 453.862328 
L 318.154412 453.034986 
L 322.486765 453.448657 
L 326.819118 453.034986 
L 331.151471 453.034986 
L 335.483824 452.207644 
L 339.816176 453.034986 
L 348.480882 452.207644 
L 355.288866 452.207644 
L 357.145588 451.793973 
L 361.477941 450.966631 
L 365.810294 452.207644 
L 370.142647 450.55296 
L 374.475 450.139289 
L 378.807353 450.55296 
L 383.139706 450.55296 
L 387.472059 448.898276 
L 391.804412 450.139289 
L 400.469118 451.793973 
L 404.801471 452.207644 
L 409.133824 451.380302 
L 413.466176 449.311947 
L 417.798529 448.070934 
L 422.130882 448.484605 
L 426.463235 447.243592 
L 430.795588 443.934224 
L 435.127941 442.693211 
L 439.460294 443.106882 
L 443.792647 441.452198 
L 448.125 438.556501 
L 456.789706 439.383843 
L 461.122059 438.970172 
L 465.454412 437.315488 
L 469.786765 436.074475 
L 475.97584 433.592449 
L 487.116176 434.00612 
L 495.780882 433.178778 
L 530.439706 430.696752 
L 534.772059 431.524094 
L 539.104412 431.524094 
L 543.436765 429.455739 
L 547.769118 430.283081 
L 552.101471 433.592449 
L 552.720378 429.86941 
L 555.196008 429.455739 
L 556.433824 430.283081 
L 560.766176 429.86941 
L 565.098529 429.86941 
L 569.430882 429.455739 
L 573.763235 430.696752 
L 578.095588 429.042068 
L 582.427941 429.042068 
L 591.092647 429.86941 
L 595.425 431.524094 
L 599.757353 428.628397 
L 604.089706 429.042068 
L 608.422059 426.560042 
L 612.754412 426.146371 
L 621.419118 427.801055 
L 625.751471 426.973713 
L 630.083824 428.214726 
L 638.748529 427.387384 
L 643.080882 429.042068 
L 647.413235 427.801055 
L 651.745588 426.973713 
L 656.077941 427.387384 
L 660.410294 426.973713 
L 664.742647 425.7327 
L 669.075 426.146371 
L 673.407353 425.319029 
L 677.739706 424.905358 
L 682.072059 425.7327 
L 686.404412 426.146371 
L 690.736765 424.905358 
L 695.069118 426.560042 
L 699.401471 427.801055 
L 703.733824 425.7327 
L 708.066176 426.146371 
L 712.398529 426.146371 
L 716.730882 427.801055 
L 721.063235 425.7327 
L 725.395588 426.146371 
L 729.727941 426.146371 
L 734.060294 427.801055 
L 738.392647 426.560042 
L 742.725 426.146371 
L 747.057353 426.560042 
L 751.389706 426.560042 
L 760.054412 425.7327 
L 764.386765 425.7327 
L 768.719118 426.560042 
L 773.051471 426.146371 
L 777.383824 426.560042 
L 781.716176 426.146371 
L 790.380882 426.973713 
L 794.713235 426.973713 
L 799.045588 426.560042 
L 807.710294 426.560042 
L 812.042647 427.387384 
L 816.375 425.7327 
L 816.375 425.7327 
" clip-path="url(#p59917e3b3d)" style="fill: none; stroke: #9467bd; stroke-width: 1.5; stroke-linecap: square"/>
   </g>
   <g id="line2d_28">
    <path d="M 79.875 478.682588 
L 84.207353 478.682588 
L 88.539706 479.50993 
L 92.872059 479.923601 
L 105.869118 479.923601 
L 110.201471 480.337272 
L 114.533824 480.337272 
L 118.866176 479.923601 
L 123.198529 479.096259 
L 131.863235 479.923601 
L 136.195588 479.50993 
L 140.527941 479.50993 
L 144.860294 479.096259 
L 149.192647 479.096259 
L 153.525 484.887653 
L 157.857353 484.473982 
L 162.189706 484.473982 
L 166.522059 484.887653 
L 170.854412 484.887653 
L 175.186765 484.473982 
L 179.519118 485.301324 
L 183.851471 484.887653 
L 192.516176 484.887653 
L 196.848529 480.750943 
L 201.180882 485.714995 
L 205.513235 485.301324 
L 209.845588 485.301324 
L 214.177941 485.714995 
L 218.510294 485.301324 
L 235.839706 485.301324 
L 240.172059 485.714995 
L 257.501471 485.714995 
L 261.833824 491.092718 
L 266.166176 491.092718 
L 270.498529 491.92006 
L 274.830882 491.092718 
L 279.163235 491.506389 
L 283.495588 491.506389 
L 287.827941 491.092718 
L 292.160294 491.092718 
L 296.492647 490.679047 
L 305.157353 490.679047 
L 309.489706 491.092718 
L 313.822059 490.679047 
L 318.154412 490.679047 
L 322.486765 491.092718 
L 335.483824 491.092718 
L 339.816176 491.92006 
L 348.480882 492.747402 
L 355.288866 493.574744 
L 357.145588 491.92006 
L 361.477941 491.92006 
L 365.810294 493.988415 
L 370.142647 492.333731 
L 374.475 492.333731 
L 378.807353 491.92006 
L 383.139706 493.161073 
L 387.472059 492.333731 
L 391.804412 492.747402 
L 396.136765 492.333731 
L 400.469118 492.333731 
L 404.801471 493.161073 
L 409.133824 492.333731 
L 417.798529 492.333731 
L 422.130882 492.747402 
L 439.460294 492.747402 
L 443.792647 493.161073 
L 452.457353 493.161073 
L 456.789706 493.574744 
L 461.122059 493.161073 
L 465.454412 493.161073 
L 469.786765 493.574744 
L 475.97584 493.574744 
L 487.116176 493.988415 
L 491.448529 493.988415 
L 495.780882 494.402086 
L 543.436765 494.402086 
L 547.769118 494.815757 
L 552.720378 494.402086 
L 556.433824 494.402086 
L 560.766176 499.779809 
L 565.098529 496.05677 
L 569.430882 496.05677 
L 573.763235 495.643099 
L 578.095588 495.643099 
L 582.427941 496.05677 
L 595.425 496.05677 
L 599.757353 498.952467 
L 604.089706 498.952467 
L 608.422059 499.366138 
L 621.419118 499.366138 
L 625.751471 500.607151 
L 630.083824 501.020822 
L 638.748529 500.607151 
L 643.080882 500.607151 
L 647.413235 501.020822 
L 669.075 501.020822 
L 673.407353 500.19348 
L 677.739706 499.779809 
L 690.736765 499.779809 
L 695.069118 499.366138 
L 703.733824 499.366138 
L 708.066176 499.779809 
L 712.398529 499.779809 
L 716.730882 500.19348 
L 773.051471 500.19348 
L 777.383824 499.779809 
L 816.375 499.779809 
L 816.375 499.779809 
" clip-path="url(#p59917e3b3d)" style="fill: none; stroke: #8c564b; stroke-width: 1.5; stroke-linecap: square"/>
   </g>
   <g id="line2d_29">
    <path d="M 79.875 479.50993 
L 84.207353 480.337272 
L 88.539706 483.232969 
L 92.872059 483.64664 
L 97.204412 484.473982 
L 101.536765 483.64664 
L 105.869118 484.060311 
L 110.201471 483.64664 
L 114.533824 484.060311 
L 127.530882 482.819298 
L 131.863235 484.060311 
L 144.860294 484.060311 
L 153.525 485.714995 
L 157.857353 484.473982 
L 162.189706 485.301324 
L 166.522059 484.887653 
L 170.854412 485.714995 
L 175.186765 484.887653 
L 179.519118 484.887653 
L 183.851471 484.473982 
L 192.516176 486.128666 
L 201.180882 485.301324 
L 205.513235 485.301324 
L 209.845588 486.542337 
L 214.177941 485.714995 
L 218.510294 486.542337 
L 222.842647 485.301324 
L 227.175 484.887653 
L 231.507353 486.956008 
L 235.839706 486.128666 
L 240.172059 486.542337 
L 244.504412 486.542337 
L 253.169118 487.369679 
L 257.501471 491.92006 
L 261.833824 492.333731 
L 266.166176 492.333731 
L 270.498529 487.369679 
L 274.830882 491.92006 
L 279.163235 486.956008 
L 283.495588 491.506389 
L 287.827941 491.506389 
L 292.160294 488.197021 
L 296.492647 487.369679 
L 302.062815 487.369679 
L 305.157353 488.197021 
L 309.489706 487.369679 
L 313.822059 487.369679 
L 318.154412 491.092718 
L 322.486765 491.506389 
L 326.819118 492.333731 
L 331.151471 491.506389 
L 339.816176 491.506389 
L 348.480882 493.161073 
L 355.288866 492.747402 
L 357.145588 492.333731 
L 361.477941 492.333731 
L 365.810294 493.574744 
L 370.142647 494.402086 
L 378.807353 495.229428 
L 383.139706 494.402086 
L 387.472059 494.402086 
L 391.804412 495.229428 
L 396.136765 494.815757 
L 400.469118 495.643099 
L 404.801471 494.815757 
L 409.133824 495.643099 
L 413.466176 495.229428 
L 426.463235 496.470441 
L 430.795588 496.05677 
L 435.127941 494.815757 
L 439.460294 494.815757 
L 443.792647 495.229428 
L 448.125 494.815757 
L 452.457353 495.229428 
L 456.789706 494.815757 
L 461.122059 495.229428 
L 465.454412 513.017281 
L 469.786765 510.121584 
L 475.97584 509.707913 
L 487.116176 509.707913 
L 491.448529 510.121584 
L 495.780882 510.121584 
L 534.772059 509.707913 
L 539.104412 510.535255 
L 543.436765 510.121584 
L 547.769118 511.362597 
L 552.101471 510.948926 
L 552.720378 510.535255 
L 555.196008 495.229428 
L 556.433824 495.229428 
L 560.766176 496.884112 
L 565.098529 497.297783 
L 573.763235 497.297783 
L 578.095588 498.125125 
L 582.427941 497.711454 
L 586.760294 498.538796 
L 591.092647 498.952467 
L 595.425 498.125125 
L 599.757353 498.125125 
L 604.089706 498.952467 
L 608.422059 496.470441 
L 612.754412 498.538796 
L 617.086765 498.125125 
L 621.419118 496.884112 
L 625.751471 496.884112 
L 630.083824 498.125125 
L 638.748529 498.125125 
L 643.080882 497.711454 
L 647.413235 498.538796 
L 651.745588 496.05677 
L 656.077941 498.125125 
L 660.410294 498.952467 
L 664.742647 496.470441 
L 669.075 496.470441 
L 673.407353 498.125125 
L 677.739706 498.538796 
L 686.404412 498.538796 
L 690.736765 499.366138 
L 695.069118 499.366138 
L 699.401471 501.020822 
L 703.733824 499.779809 
L 708.066176 500.607151 
L 712.398529 500.19348 
L 729.727941 500.19348 
L 734.060294 500.607151 
L 738.392647 500.607151 
L 742.725 501.020822 
L 747.057353 500.607151 
L 751.389706 501.020822 
L 755.722059 502.261835 
L 760.054412 501.434493 
L 764.386765 501.848164 
L 786.048529 501.848164 
L 790.380882 502.261835 
L 794.713235 502.261835 
L 803.377941 503.089177 
L 807.710294 502.675506 
L 812.042647 502.675506 
L 816.375 503.502848 
L 816.375 503.502848 
" clip-path="url(#p59917e3b3d)" style="fill: none; stroke: #e377c2; stroke-width: 1.5; stroke-linecap: square"/>
   </g>
   <g id="line2d_30">
    <path d="M 79.875 484.887653 
L 84.207353 486.128666 
L 88.539706 485.301324 
L 92.872059 485.714995 
L 97.204412 484.887653 
L 101.536765 480.750943 
L 105.869118 481.164614 
L 110.201471 480.337272 
L 114.533824 481.578285 
L 118.866176 480.750943 
L 123.198529 480.337272 
L 131.863235 480.337272 
L 136.195588 481.164614 
L 140.527941 483.232969 
L 144.860294 479.923601 
L 149.192647 479.923601 
L 153.525 481.164614 
L 157.857353 492.333731 
L 162.189706 479.923601 
L 175.186765 481.164614 
L 179.519118 480.337272 
L 183.851471 480.750943 
L 188.183824 482.819298 
L 192.516176 481.164614 
L 205.513235 479.923601 
L 214.177941 480.750943 
L 218.510294 480.337272 
L 227.175 480.337272 
L 231.507353 481.164614 
L 235.839706 482.405627 
L 240.172059 482.819298 
L 244.504412 484.060311 
L 248.836765 484.060311 
L 253.169118 485.301324 
L 257.501471 490.679047 
L 261.833824 491.092718 
L 270.498529 491.092718 
L 274.830882 492.333731 
L 279.163235 493.161073 
L 292.160294 493.161073 
L 296.492647 497.297783 
L 302.062815 498.538796 
L 305.157353 498.538796 
L 309.489706 507.639558 
L 313.822059 509.294242 
L 322.486765 510.948926 
L 326.819118 512.189939 
L 331.151471 511.776268 
L 335.483824 513.430952 
L 344.148529 514.258294 
L 348.480882 523.772727 
L 370.142647 523.772727 
M 378.807353 523.772727 
L 391.804412 523.772727 
M 400.469118 523.772727 
L 430.795588 523.772727 
M 439.460294 523.772727 
L 475.97584 523.772727 
M 491.448529 523.772727 
L 495.780882 523.772727 
L 495.780882 523.772727 
" clip-path="url(#p59917e3b3d)" style="fill: none; stroke: #7f7f7f; stroke-width: 1.5; stroke-linecap: square"/>
   </g>
   <g id="line2d_31">
    <path d="M 79.875 519.222346 
L 218.510294 519.222346 
L 222.842647 519.636017 
L 231.507353 519.636017 
L 235.839706 520.049688 
L 240.172059 519.636017 
L 274.830882 519.636017 
L 279.163235 520.049688 
L 283.495588 519.636017 
L 339.816176 519.636017 
L 344.148529 520.049688 
L 348.480882 519.636017 
L 443.792647 519.636017 
L 448.125 520.049688 
L 456.789706 520.049688 
L 461.122059 519.636017 
L 465.454412 520.049688 
L 534.772059 520.049688 
L 539.104412 519.636017 
L 543.436765 519.636017 
L 547.769118 520.049688 
L 552.720378 520.049688 
L 555.196008 519.636017 
L 556.433824 520.049688 
L 625.751471 520.049688 
L 630.083824 520.463359 
L 638.748529 520.049688 
L 647.413235 520.87703 
L 656.077941 520.049688 
L 660.410294 520.463359 
L 664.742647 520.049688 
L 729.727941 520.049688 
L 734.060294 520.463359 
L 751.389706 520.463359 
L 755.722059 520.87703 
L 773.051471 520.87703 
L 777.383824 520.463359 
L 781.716176 520.463359 
L 786.048529 520.049688 
L 799.045588 520.049688 
L 803.377941 520.463359 
L 816.375 520.463359 
L 816.375 520.463359 
" clip-path="url(#p59917e3b3d)" style="fill: none; stroke: #bcbd22; stroke-width: 1.5; stroke-linecap: square"/>
   </g>
   <g id="line2d_32">
    <path d="M 302.062815 506.812216 
L 305.157353 507.225887 
L 313.822059 507.225887 
L 318.154412 503.916519 
L 326.819118 503.916519 
L 331.151471 503.502848 
L 335.483824 503.916519 
L 344.148529 503.916519 
L 348.480882 503.089177 
L 355.288866 502.261835 
L 357.145588 502.675506 
L 361.477941 502.675506 
L 365.810294 506.398545 
L 370.142647 506.812216 
L 374.475 505.984874 
L 387.472059 505.984874 
L 391.804412 506.398545 
L 396.136765 505.984874 
L 409.133824 505.984874 
L 413.466176 506.398545 
L 417.798529 505.157532 
L 439.460294 505.157532 
L 443.792647 505.571203 
L 448.125 506.398545 
L 475.97584 506.398545 
L 487.116176 504.33019 
L 530.439706 504.33019 
L 534.772059 506.812216 
L 539.104412 503.916519 
L 552.720378 503.916519 
L 555.196008 503.089177 
L 578.095588 503.089177 
L 582.427941 500.19348 
L 586.760294 500.607151 
L 595.425 500.607151 
L 599.757353 496.470441 
L 608.422059 496.470441 
L 612.754412 494.815757 
L 621.419118 494.815757 
L 625.751471 494.402086 
L 630.083824 494.402086 
L 638.748529 493.161073 
L 643.080882 492.747402 
L 656.077941 492.747402 
L 660.410294 493.161073 
L 664.742647 492.747402 
L 695.069118 492.747402 
L 699.401471 494.402086 
L 703.733824 492.747402 
L 708.066176 493.161073 
L 742.725 493.161073 
L 747.057353 492.747402 
L 751.389706 492.747402 
L 755.722059 493.161073 
L 760.054412 492.747402 
L 773.051471 492.747402 
L 777.383824 492.333731 
L 781.716176 492.747402 
L 786.048529 492.747402 
L 790.380882 493.161073 
L 807.710294 493.161073 
L 812.042647 493.574744 
L 816.375 493.574744 
L 816.375 493.574744 
" clip-path="url(#p59917e3b3d)" style="fill: none; stroke: #17becf; stroke-width: 1.5; stroke-linecap: square"/>
   </g>
   <g id="patch_3">
    <path d="M 43.05 548.2 
L 43.05 10.8 
" style="fill: none; stroke: #000000; stroke-width: 0.8; stroke-linejoin: miter; stroke-linecap: square"/>
   </g>
   <g id="patch_4">
    <path d="M 853.2 548.2 
L 853.2 10.8 
" style="fill: none; stroke: #000000; stroke-width: 0.8; stroke-linejoin: miter; stroke-linecap: square"/>
   </g>
   <g id="patch_5">
    <path d="M 43.05 548.2 
L 853.2 548.2 
" style="fill: none; stroke: #000000; stroke-width: 0.8; stroke-linejoin: miter; stroke-linecap: square"/>
   </g>
   <g id="patch_6">
    <path d="M 43.05 10.8 
L 853.2 10.8 
" style="fill: none; stroke: #000000; stroke-width: 0.8; stroke-linejoin: miter; stroke-linecap: square"/>
   </g>
   <g id="legend_1">
    <g id="patch_7">
     <path d="M 50.05 165.58125 
L 176.832813 165.58125 
Q 178.832813 165.58125 178.832813 163.58125 
L 178.832813 17.8 
Q 178.832813 15.8 176.832813 15.8 
L 50.05 15.8 
Q 48.05 15.8 48.05 17.8 
L 48.05 163.58125 
Q 48.05 165.58125 50.05 165.58125 
z
" style="fill: #ffffff; opacity: 0.8; stroke: #cccccc; stroke-linejoin: miter"/>
    </g>
    <g id="line2d_33">
     <path d="M 52.05 23.898438 
L 62.05 23.898438 
L 72.05 23.898438 
" style="fill: none; stroke: #1f77b4; stroke-width: 1.5; stroke-linecap: square"/>
    </g>
    <g id="text_12">
     <!-- somacos -->
     <g transform="translate(80.05 27.398438)scale(0.1 -0.1)">
      <defs>
       <path id="DejaVuSans-73" d="M 2834 3397 
L 2834 2853 
Q 2591 2978 2328 3040 
Q 2066 3103 1784 3103 
Q 1356 3103 1142 2972 
Q 928 2841 928 2578 
Q 928 2378 1081 2264 
Q 1234 2150 1697 2047 
L 1894 2003 
Q 2506 1872 2764 1633 
Q 3022 1394 3022 966 
Q 3022 478 2636 193 
Q 2250 -91 1575 -91 
Q 1294 -91 989 -36 
Q 684 19 347 128 
L 347 722 
Q 666 556 975 473 
Q 1284 391 1588 391 
Q 1994 391 2212 530 
Q 2431 669 2431 922 
Q 2431 1156 2273 1281 
Q 2116 1406 1581 1522 
L 1381 1569 
Q 847 1681 609 1914 
Q 372 2147 372 2553 
Q 372 3047 722 3315 
Q 1072 3584 1716 3584 
Q 2034 3584 2315 3537 
Q 2597 3491 2834 3397 
z
" transform="scale(0.015625)"/>
       <path id="DejaVuSans-6f" d="M 1959 3097 
Q 1497 3097 1228 2736 
Q 959 2375 959 1747 
Q 959 1119 1226 758 
Q 1494 397 1959 397 
Q 2419 397 2687 759 
Q 2956 1122 2956 1747 
Q 2956 2369 2687 2733 
Q 2419 3097 1959 3097 
z
M 1959 3584 
Q 2709 3584 3137 3096 
Q 3566 2609 3566 1747 
Q 3566 888 3137 398 
Q 2709 -91 1959 -91 
Q 1206 -91 779 398 
Q 353 888 353 1747 
Q 353 2609 779 3096 
Q 1206 3584 1959 3584 
z
" transform="scale(0.015625)"/>
       <path id="DejaVuSans-6d" d="M 3328 2828 
Q 3544 3216 3844 3400 
Q 4144 3584 4550 3584 
Q 5097 3584 5394 3201 
Q 5691 2819 5691 2113 
L 5691 0 
L 5113 0 
L 5113 2094 
Q 5113 2597 4934 2840 
Q 4756 3084 4391 3084 
Q 3944 3084 3684 2787 
Q 3425 2491 3425 1978 
L 3425 0 
L 2847 0 
L 2847 2094 
Q 2847 2600 2669 2842 
Q 2491 3084 2119 3084 
Q 1678 3084 1418 2786 
Q 1159 2488 1159 1978 
L 1159 0 
L 581 0 
L 581 3500 
L 1159 3500 
L 1159 2956 
Q 1356 3278 1631 3431 
Q 1906 3584 2284 3584 
Q 2666 3584 2933 3390 
Q 3200 3197 3328 2828 
z
" transform="scale(0.015625)"/>
       <path id="DejaVuSans-61" d="M 2194 1759 
Q 1497 1759 1228 1600 
Q 959 1441 959 1056 
Q 959 750 1161 570 
Q 1363 391 1709 391 
Q 2188 391 2477 730 
Q 2766 1069 2766 1631 
L 2766 1759 
L 2194 1759 
z
M 3341 1997 
L 3341 0 
L 2766 0 
L 2766 531 
Q 2569 213 2275 61 
Q 1981 -91 1556 -91 
Q 1019 -91 701 211 
Q 384 513 384 1019 
Q 384 1609 779 1909 
Q 1175 2209 1959 2209 
L 2766 2209 
L 2766 2266 
Q 2766 2663 2505 2880 
Q 2244 3097 1772 3097 
Q 1472 3097 1187 3025 
Q 903 2953 641 2809 
L 641 3341 
Q 956 3463 1253 3523 
Q 1550 3584 1831 3584 
Q 2591 3584 2966 3190 
Q 3341 2797 3341 1997 
z
" transform="scale(0.015625)"/>
       <path id="DejaVuSans-63" d="M 3122 3366 
L 3122 2828 
Q 2878 2963 2633 3030 
Q 2388 3097 2138 3097 
Q 1578 3097 1268 2742 
Q 959 2388 959 1747 
Q 959 1106 1268 751 
Q 1578 397 2138 397 
Q 2388 397 2633 464 
Q 2878 531 3122 666 
L 3122 134 
Q 2881 22 2623 -34 
Q 2366 -91 2075 -91 
Q 1284 -91 818 406 
Q 353 903 353 1747 
Q 353 2603 823 3093 
Q 1294 3584 2113 3584 
Q 2378 3584 2631 3529 
Q 2884 3475 3122 3366 
z
" transform="scale(0.015625)"/>
      </defs>
      <use xlink:href="#DejaVuSans-73"/>
      <use xlink:href="#DejaVuSans-6f" x="52.099609"/>
      <use xlink:href="#DejaVuSans-6d" x="113.28125"/>
      <use xlink:href="#DejaVuSans-61" x="210.693359"/>
      <use xlink:href="#DejaVuSans-63" x="271.972656"/>
      <use xlink:href="#DejaVuSans-6f" x="326.953125"/>
      <use xlink:href="#DejaVuSans-73" x="388.134766"/>
     </g>
    </g>
    <g id="line2d_34">
     <path d="M 52.05 38.576563 
L 62.05 38.576563 
L 72.05 38.576563 
" style="fill: none; stroke: #ff7f0e; stroke-width: 1.5; stroke-linecap: square"/>
    </g>
    <g id="text_13">
     <!-- cc-egov -->
     <g transform="translate(80.05 42.076563)scale(0.1 -0.1)">
      <defs>
       <path id="DejaVuSans-2d" d="M 313 2009 
L 1997 2009 
L 1997 1497 
L 313 1497 
L 313 2009 
z
" transform="scale(0.015625)"/>
       <path id="DejaVuSans-65" d="M 3597 1894 
L 3597 1613 
L 953 1613 
Q 991 1019 1311 708 
Q 1631 397 2203 397 
Q 2534 397 2845 478 
Q 3156 559 3463 722 
L 3463 178 
Q 3153 47 2828 -22 
Q 2503 -91 2169 -91 
Q 1331 -91 842 396 
Q 353 884 353 1716 
Q 353 2575 817 3079 
Q 1281 3584 2069 3584 
Q 2775 3584 3186 3129 
Q 3597 2675 3597 1894 
z
M 3022 2063 
Q 3016 2534 2758 2815 
Q 2500 3097 2075 3097 
Q 1594 3097 1305 2825 
Q 1016 2553 972 2059 
L 3022 2063 
z
" transform="scale(0.015625)"/>
       <path id="DejaVuSans-67" d="M 2906 1791 
Q 2906 2416 2648 2759 
Q 2391 3103 1925 3103 
Q 1463 3103 1205 2759 
Q 947 2416 947 1791 
Q 947 1169 1205 825 
Q 1463 481 1925 481 
Q 2391 481 2648 825 
Q 2906 1169 2906 1791 
z
M 3481 434 
Q 3481 -459 3084 -895 
Q 2688 -1331 1869 -1331 
Q 1566 -1331 1297 -1286 
Q 1028 -1241 775 -1147 
L 775 -588 
Q 1028 -725 1275 -790 
Q 1522 -856 1778 -856 
Q 2344 -856 2625 -561 
Q 2906 -266 2906 331 
L 2906 616 
Q 2728 306 2450 153 
Q 2172 0 1784 0 
Q 1141 0 747 490 
Q 353 981 353 1791 
Q 353 2603 747 3093 
Q 1141 3584 1784 3584 
Q 2172 3584 2450 3431 
Q 2728 3278 2906 2969 
L 2906 3500 
L 3481 3500 
L 3481 434 
z
" transform="scale(0.015625)"/>
       <path id="DejaVuSans-76" d="M 191 3500 
L 800 3500 
L 1894 563 
L 2988 3500 
L 3597 3500 
L 2284 0 
L 1503 0 
L 191 3500 
z
" transform="scale(0.015625)"/>
      </defs>
      <use xlink:href="#DejaVuSans-63"/>
      <use xlink:href="#DejaVuSans-63" x="54.980469"/>
      <use xlink:href="#DejaVuSans-2d" x="109.960938"/>
      <use xlink:href="#DejaVuSans-65" x="146.044922"/>
      <use xlink:href="#DejaVuSans-67" x="207.568359"/>
      <use xlink:href="#DejaVuSans-6f" x="271.044922"/>
      <use xlink:href="#DejaVuSans-76" x="332.226562"/>
     </g>
    </g>
    <g id="line2d_35">
     <path d="M 52.05 53.254688 
L 62.05 53.254688 
L 72.05 53.254688 
" style="fill: none; stroke: #2ca02c; stroke-width: 1.5; stroke-linecap: square"/>
    </g>
    <g id="text_14">
     <!-- more!rubin -->
     <g transform="translate(80.05 56.754688)scale(0.1 -0.1)">
      <defs>
       <path id="DejaVuSans-72" d="M 2631 2963 
Q 2534 3019 2420 3045 
Q 2306 3072 2169 3072 
Q 1681 3072 1420 2755 
Q 1159 2438 1159 1844 
L 1159 0 
L 581 0 
L 581 3500 
L 1159 3500 
L 1159 2956 
Q 1341 3275 1631 3429 
Q 1922 3584 2338 3584 
Q 2397 3584 2469 3576 
Q 2541 3569 2628 3553 
L 2631 2963 
z
" transform="scale(0.015625)"/>
       <path id="DejaVuSans-21" d="M 966 794 
L 1600 794 
L 1600 0 
L 966 0 
L 966 794 
z
M 966 4666 
L 1600 4666 
L 1600 2619 
L 1538 1503 
L 1031 1503 
L 966 2619 
L 966 4666 
z
" transform="scale(0.015625)"/>
       <path id="DejaVuSans-75" d="M 544 1381 
L 544 3500 
L 1119 3500 
L 1119 1403 
Q 1119 906 1312 657 
Q 1506 409 1894 409 
Q 2359 409 2629 706 
Q 2900 1003 2900 1516 
L 2900 3500 
L 3475 3500 
L 3475 0 
L 2900 0 
L 2900 538 
Q 2691 219 2414 64 
Q 2138 -91 1772 -91 
Q 1169 -91 856 284 
Q 544 659 544 1381 
z
M 1991 3584 
L 1991 3584 
z
" transform="scale(0.015625)"/>
       <path id="DejaVuSans-62" d="M 3116 1747 
Q 3116 2381 2855 2742 
Q 2594 3103 2138 3103 
Q 1681 3103 1420 2742 
Q 1159 2381 1159 1747 
Q 1159 1113 1420 752 
Q 1681 391 2138 391 
Q 2594 391 2855 752 
Q 3116 1113 3116 1747 
z
M 1159 2969 
Q 1341 3281 1617 3432 
Q 1894 3584 2278 3584 
Q 2916 3584 3314 3078 
Q 3713 2572 3713 1747 
Q 3713 922 3314 415 
Q 2916 -91 2278 -91 
Q 1894 -91 1617 61 
Q 1341 213 1159 525 
L 1159 0 
L 581 0 
L 581 4863 
L 1159 4863 
L 1159 2969 
z
" transform="scale(0.015625)"/>
       <path id="DejaVuSans-69" d="M 603 3500 
L 1178 3500 
L 1178 0 
L 603 0 
L 603 3500 
z
M 603 4863 
L 1178 4863 
L 1178 4134 
L 603 4134 
L 603 4863 
z
" transform="scale(0.015625)"/>
       <path id="DejaVuSans-6e" d="M 3513 2113 
L 3513 0 
L 2938 0 
L 2938 2094 
Q 2938 2591 2744 2837 
Q 2550 3084 2163 3084 
Q 1697 3084 1428 2787 
Q 1159 2491 1159 1978 
L 1159 0 
L 581 0 
L 581 3500 
L 1159 3500 
L 1159 2956 
Q 1366 3272 1645 3428 
Q 1925 3584 2291 3584 
Q 2894 3584 3203 3211 
Q 3513 2838 3513 2113 
z
" transform="scale(0.015625)"/>
      </defs>
      <use xlink:href="#DejaVuSans-6d"/>
      <use xlink:href="#DejaVuSans-6f" x="97.412109"/>
      <use xlink:href="#DejaVuSans-72" x="158.59375"/>
      <use xlink:href="#DejaVuSans-65" x="197.457031"/>
      <use xlink:href="#DejaVuSans-21" x="258.980469"/>
      <use xlink:href="#DejaVuSans-72" x="299.068359"/>
      <use xlink:href="#DejaVuSans-75" x="340.181641"/>
      <use xlink:href="#DejaVuSans-62" x="403.560547"/>
      <use xlink:href="#DejaVuSans-69" x="467.037109"/>
      <use xlink:href="#DejaVuSans-6e" x="494.820312"/>
     </g>
    </g>
    <g id="line2d_36">
     <path d="M 52.05 67.932813 
L 62.05 67.932813 
L 72.05 67.932813 
" style="fill: none; stroke: #d62728; stroke-width: 1.5; stroke-linecap: square"/>
    </g>
    <g id="text_15">
     <!-- sternberg -->
     <g transform="translate(80.05 71.432813)scale(0.1 -0.1)">
      <defs>
       <path id="DejaVuSans-74" d="M 1172 4494 
L 1172 3500 
L 2356 3500 
L 2356 3053 
L 1172 3053 
L 1172 1153 
Q 1172 725 1289 603 
Q 1406 481 1766 481 
L 2356 481 
L 2356 0 
L 1766 0 
Q 1100 0 847 248 
Q 594 497 594 1153 
L 594 3053 
L 172 3053 
L 172 3500 
L 594 3500 
L 594 4494 
L 1172 4494 
z
" transform="scale(0.015625)"/>
      </defs>
      <use xlink:href="#DejaVuSans-73"/>
      <use xlink:href="#DejaVuSans-74" x="52.099609"/>
      <use xlink:href="#DejaVuSans-65" x="91.308594"/>
      <use xlink:href="#DejaVuSans-72" x="152.832031"/>
      <use xlink:href="#DejaVuSans-6e" x="192.195312"/>
      <use xlink:href="#DejaVuSans-62" x="255.574219"/>
      <use xlink:href="#DejaVuSans-65" x="319.050781"/>
      <use xlink:href="#DejaVuSans-72" x="380.574219"/>
      <use xlink:href="#DejaVuSans-67" x="419.9375"/>
     </g>
    </g>
    <g id="line2d_37">
     <path d="M 52.05 82.610938 
L 62.05 82.610938 
L 72.05 82.610938 
" style="fill: none; stroke: #9467bd; stroke-width: 1.5; stroke-linecap: square"/>
    </g>
    <g id="text_16">
     <!-- kommuna -->
     <g transform="translate(80.05 86.110938)scale(0.1 -0.1)">
      <defs>
       <path id="DejaVuSans-6b" d="M 581 4863 
L 1159 4863 
L 1159 1991 
L 2875 3500 
L 3609 3500 
L 1753 1863 
L 3688 0 
L 2938 0 
L 1159 1709 
L 1159 0 
L 581 0 
L 581 4863 
z
" transform="scale(0.015625)"/>
      </defs>
      <use xlink:href="#DejaVuSans-6b"/>
      <use xlink:href="#DejaVuSans-6f" x="54.285156"/>
      <use xlink:href="#DejaVuSans-6d" x="115.466797"/>
      <use xlink:href="#DejaVuSans-6d" x="212.878906"/>
      <use xlink:href="#DejaVuSans-75" x="310.291016"/>
      <use xlink:href="#DejaVuSans-6e" x="373.669922"/>
      <use xlink:href="#DejaVuSans-61" x="437.048828"/>
     </g>
    </g>
    <g id="line2d_38">
     <path d="M 52.05 97.289062 
L 62.05 97.289062 
L 72.05 97.289062 
" style="fill: none; stroke: #8c564b; stroke-width: 1.5; stroke-linecap: square"/>
    </g>
    <g id="text_17">
     <!-- PortUNA.ris -->
     <g transform="translate(80.05 100.789062)scale(0.1 -0.1)">
      <defs>
       <path id="DejaVuSans-50" d="M 1259 4147 
L 1259 2394 
L 2053 2394 
Q 2494 2394 2734 2622 
Q 2975 2850 2975 3272 
Q 2975 3691 2734 3919 
Q 2494 4147 2053 4147 
L 1259 4147 
z
M 628 4666 
L 2053 4666 
Q 2838 4666 3239 4311 
Q 3641 3956 3641 3272 
Q 3641 2581 3239 2228 
Q 2838 1875 2053 1875 
L 1259 1875 
L 1259 0 
L 628 0 
L 628 4666 
z
" transform="scale(0.015625)"/>
       <path id="DejaVuSans-55" d="M 556 4666 
L 1191 4666 
L 1191 1831 
Q 1191 1081 1462 751 
Q 1734 422 2344 422 
Q 2950 422 3222 751 
Q 3494 1081 3494 1831 
L 3494 4666 
L 4128 4666 
L 4128 1753 
Q 4128 841 3676 375 
Q 3225 -91 2344 -91 
Q 1459 -91 1007 375 
Q 556 841 556 1753 
L 556 4666 
z
" transform="scale(0.015625)"/>
       <path id="DejaVuSans-4e" d="M 628 4666 
L 1478 4666 
L 3547 763 
L 3547 4666 
L 4159 4666 
L 4159 0 
L 3309 0 
L 1241 3903 
L 1241 0 
L 628 0 
L 628 4666 
z
" transform="scale(0.015625)"/>
       <path id="DejaVuSans-41" d="M 2188 4044 
L 1331 1722 
L 3047 1722 
L 2188 4044 
z
M 1831 4666 
L 2547 4666 
L 4325 0 
L 3669 0 
L 3244 1197 
L 1141 1197 
L 716 0 
L 50 0 
L 1831 4666 
z
" transform="scale(0.015625)"/>
       <path id="DejaVuSans-2e" d="M 684 794 
L 1344 794 
L 1344 0 
L 684 0 
L 684 794 
z
" transform="scale(0.015625)"/>
      </defs>
      <use xlink:href="#DejaVuSans-50"/>
      <use xlink:href="#DejaVuSans-6f" x="56.677734"/>
      <use xlink:href="#DejaVuSans-72" x="117.859375"/>
      <use xlink:href="#DejaVuSans-74" x="158.972656"/>
      <use xlink:href="#DejaVuSans-55" x="198.181641"/>
      <use xlink:href="#DejaVuSans-4e" x="271.375"/>
      <use xlink:href="#DejaVuSans-41" x="346.179688"/>
      <use xlink:href="#DejaVuSans-2e" x="412.837891"/>
      <use xlink:href="#DejaVuSans-72" x="444.625"/>
      <use xlink:href="#DejaVuSans-69" x="485.738281"/>
      <use xlink:href="#DejaVuSans-73" x="513.521484"/>
     </g>
    </g>
    <g id="line2d_39">
     <path d="M 52.05 111.967188 
L 62.05 111.967188 
L 72.05 111.967188 
" style="fill: none; stroke: #e377c2; stroke-width: 1.5; stroke-linecap: square"/>
    </g>
    <g id="text_18">
     <!-- provox -->
     <g transform="translate(80.05 115.467188)scale(0.1 -0.1)">
      <defs>
       <path id="DejaVuSans-70" d="M 1159 525 
L 1159 -1331 
L 581 -1331 
L 581 3500 
L 1159 3500 
L 1159 2969 
Q 1341 3281 1617 3432 
Q 1894 3584 2278 3584 
Q 2916 3584 3314 3078 
Q 3713 2572 3713 1747 
Q 3713 922 3314 415 
Q 2916 -91 2278 -91 
Q 1894 -91 1617 61 
Q 1341 213 1159 525 
z
M 3116 1747 
Q 3116 2381 2855 2742 
Q 2594 3103 2138 3103 
Q 1681 3103 1420 2742 
Q 1159 2381 1159 1747 
Q 1159 1113 1420 752 
Q 1681 391 2138 391 
Q 2594 391 2855 752 
Q 3116 1113 3116 1747 
z
" transform="scale(0.015625)"/>
       <path id="DejaVuSans-78" d="M 3513 3500 
L 2247 1797 
L 3578 0 
L 2900 0 
L 1881 1375 
L 863 0 
L 184 0 
L 1544 1831 
L 300 3500 
L 978 3500 
L 1906 2253 
L 2834 3500 
L 3513 3500 
z
" transform="scale(0.015625)"/>
      </defs>
      <use xlink:href="#DejaVuSans-70"/>
      <use xlink:href="#DejaVuSans-72" x="63.476562"/>
      <use xlink:href="#DejaVuSans-6f" x="102.339844"/>
      <use xlink:href="#DejaVuSans-76" x="163.521484"/>
      <use xlink:href="#DejaVuSans-6f" x="222.701172"/>
      <use xlink:href="#DejaVuSans-78" x="280.757812"/>
     </g>
    </g>
    <g id="line2d_40">
     <path d="M 52.05 126.645312 
L 62.05 126.645312 
L 72.05 126.645312 
" style="fill: none; stroke: #7f7f7f; stroke-width: 1.5; stroke-linecap: square"/>
    </g>
    <g id="text_19">
     <!-- brain-SCC GeoCMS -->
     <g transform="translate(80.05 130.145312)scale(0.1 -0.1)">
      <defs>
       <path id="DejaVuSans-53" d="M 3425 4513 
L 3425 3897 
Q 3066 4069 2747 4153 
Q 2428 4238 2131 4238 
Q 1616 4238 1336 4038 
Q 1056 3838 1056 3469 
Q 1056 3159 1242 3001 
Q 1428 2844 1947 2747 
L 2328 2669 
Q 3034 2534 3370 2195 
Q 3706 1856 3706 1288 
Q 3706 609 3251 259 
Q 2797 -91 1919 -91 
Q 1588 -91 1214 -16 
Q 841 59 441 206 
L 441 856 
Q 825 641 1194 531 
Q 1563 422 1919 422 
Q 2459 422 2753 634 
Q 3047 847 3047 1241 
Q 3047 1584 2836 1778 
Q 2625 1972 2144 2069 
L 1759 2144 
Q 1053 2284 737 2584 
Q 422 2884 422 3419 
Q 422 4038 858 4394 
Q 1294 4750 2059 4750 
Q 2388 4750 2728 4690 
Q 3069 4631 3425 4513 
z
" transform="scale(0.015625)"/>
       <path id="DejaVuSans-43" d="M 4122 4306 
L 4122 3641 
Q 3803 3938 3442 4084 
Q 3081 4231 2675 4231 
Q 1875 4231 1450 3742 
Q 1025 3253 1025 2328 
Q 1025 1406 1450 917 
Q 1875 428 2675 428 
Q 3081 428 3442 575 
Q 3803 722 4122 1019 
L 4122 359 
Q 3791 134 3420 21 
Q 3050 -91 2638 -91 
Q 1578 -91 968 557 
Q 359 1206 359 2328 
Q 359 3453 968 4101 
Q 1578 4750 2638 4750 
Q 3056 4750 3426 4639 
Q 3797 4528 4122 4306 
z
" transform="scale(0.015625)"/>
       <path id="DejaVuSans-20" transform="scale(0.015625)"/>
       <path id="DejaVuSans-47" d="M 3809 666 
L 3809 1919 
L 2778 1919 
L 2778 2438 
L 4434 2438 
L 4434 434 
Q 4069 175 3628 42 
Q 3188 -91 2688 -91 
Q 1594 -91 976 548 
Q 359 1188 359 2328 
Q 359 3472 976 4111 
Q 1594 4750 2688 4750 
Q 3144 4750 3555 4637 
Q 3966 4525 4313 4306 
L 4313 3634 
Q 3963 3931 3569 4081 
Q 3175 4231 2741 4231 
Q 1884 4231 1454 3753 
Q 1025 3275 1025 2328 
Q 1025 1384 1454 906 
Q 1884 428 2741 428 
Q 3075 428 3337 486 
Q 3600 544 3809 666 
z
" transform="scale(0.015625)"/>
       <path id="DejaVuSans-4d" d="M 628 4666 
L 1569 4666 
L 2759 1491 
L 3956 4666 
L 4897 4666 
L 4897 0 
L 4281 0 
L 4281 4097 
L 3078 897 
L 2444 897 
L 1241 4097 
L 1241 0 
L 628 0 
L 628 4666 
z
" transform="scale(0.015625)"/>
      </defs>
      <use xlink:href="#DejaVuSans-62"/>
      <use xlink:href="#DejaVuSans-72" x="63.476562"/>
      <use xlink:href="#DejaVuSans-61" x="104.589844"/>
      <use xlink:href="#DejaVuSans-69" x="165.869141"/>
      <use xlink:href="#DejaVuSans-6e" x="193.652344"/>
      <use xlink:href="#DejaVuSans-2d" x="257.03125"/>
      <use xlink:href="#DejaVuSans-53" x="293.115234"/>
      <use xlink:href="#DejaVuSans-43" x="356.591797"/>
      <use xlink:href="#DejaVuSans-43" x="426.416016"/>
      <use xlink:href="#DejaVuSans-20" x="496.240234"/>
      <use xlink:href="#DejaVuSans-47" x="528.027344"/>
      <use xlink:href="#DejaVuSans-65" x="605.517578"/>
      <use xlink:href="#DejaVuSans-6f" x="667.041016"/>
      <use xlink:href="#DejaVuSans-43" x="728.222656"/>
      <use xlink:href="#DejaVuSans-4d" x="798.046875"/>
      <use xlink:href="#DejaVuSans-53" x="884.326172"/>
     </g>
    </g>
    <g id="line2d_41">
     <path d="M 52.05 141.323438 
L 62.05 141.323438 
L 72.05 141.323438 
" style="fill: none; stroke: #bcbd22; stroke-width: 1.5; stroke-linecap: square"/>
    </g>
    <g id="text_20">
     <!-- n-komm -->
     <g transform="translate(80.05 144.823438)scale(0.1 -0.1)">
      <use xlink:href="#DejaVuSans-6e"/>
      <use xlink:href="#DejaVuSans-2d" x="63.378906"/>
      <use xlink:href="#DejaVuSans-6b" x="99.462891"/>
      <use xlink:href="#DejaVuSans-6f" x="153.748047"/>
      <use xlink:href="#DejaVuSans-6d" x="214.929688"/>
      <use xlink:href="#DejaVuSans-6d" x="312.341797"/>
     </g>
    </g>
    <g id="line2d_42">
     <path d="M 52.05 156.001562 
L 62.05 156.001562 
L 72.05 156.001562 
" style="fill: none; stroke: #17becf; stroke-width: 1.5; stroke-linecap: square"/>
    </g>
    <g id="text_21">
     <!-- bartel -->
     <g transform="translate(80.05 159.501562)scale(0.1 -0.1)">
      <defs>
       <path id="DejaVuSans-6c" d="M 603 4863 
L 1178 4863 
L 1178 0 
L 603 0 
L 603 4863 
z
" transform="scale(0.015625)"/>
      </defs>
      <use xlink:href="#DejaVuSans-62"/>
      <use xlink:href="#DejaVuSans-61" x="63.476562"/>
      <use xlink:href="#DejaVuSans-72" x="124.755859"/>
      <use xlink:href="#DejaVuSans-74" x="165.869141"/>
      <use xlink:href="#DejaVuSans-65" x="205.078125"/>
      <use xlink:href="#DejaVuSans-6c" x="266.601562"/>
     </g>
    </g>
   </g>
  </g>
 </g>
 <defs>
  <clipPath id="p59917e3b3d">
   <rect x="43.05" y="10.8" width="810.15" height="537.4"/>
  </clipPath>
 </defs>
</svg>
